<?xml version="1.0" encoding="UTF-8" standalone="no"?>
<!DOCTYPE svg PUBLIC "-//W3C//DTD SVG 1.1//EN"
 "http://www.w3.org/Graphics/SVG/1.1/DTD/svg11.dtd">
<!-- Generated by graphviz version 2.43.0 (0)
 -->
<!-- Title: G Pages: 1 -->
<svg width="1756pt" height="470pt"
 viewBox="0.00 0.00 1756.00 469.89" xmlns="http://www.w3.org/2000/svg" xmlns:xlink="http://www.w3.org/1999/xlink">
<g id="graph0" class="graph" transform="scale(1 1) rotate(0) translate(4 465.89)">
<title>G</title>
<polygon fill="white" stroke="transparent" points="-4,4 -4,-465.89 1752,-465.89 1752,4 -4,4"/>
<!-- aws_eip.nat_eip -->
<g id="node1" class="node">
<title>aws_eip.nat_eip</title>
<polygon fill="none" stroke="black" points="381,-277.04 255,-277.04 255,-241.04 381,-241.04 381,-277.04"/>
<text text-anchor="middle" x="318" y="-255.34" font-family="sans-serif" font-size="14.00">aws_eip.nat_eip</text>
</g>
<!-- aws_instance.bastion_host -->
<g id="node2" class="node">
<title>aws_instance.bastion_host</title>
<polygon fill="none" stroke="black" points="738,-357.04 537,-357.04 537,-321.04 738,-321.04 738,-357.04"/>
<text text-anchor="middle" x="637.5" y="-335.34" font-family="sans-serif" font-size="14.00">aws_instance.bastion_host</text>
</g>
<!-- aws_key_pair.ssh_keys -->
<g id="node5" class="node">
<title>aws_key_pair.ssh_keys</title>
<polygon fill="none" stroke="black" points="404.5,-394.04 231.5,-394.04 231.5,-358.04 404.5,-358.04 404.5,-394.04"/>
<text text-anchor="middle" x="318" y="-372.34" font-family="sans-serif" font-size="14.00">aws_key_pair.ssh_keys</text>
</g>
<!-- aws_instance.bastion_host&#45;&gt;aws_key_pair.ssh_keys -->
<g id="edge1" class="edge">
<title>aws_instance.bastion_host&#45;&gt;aws_key_pair.ssh_keys</title>
<path fill="none" stroke="black" d="M536.91,-350.65C497.93,-355.19 453.4,-360.38 414.79,-364.88"/>
<polygon fill="black" stroke="black" points="414.12,-361.44 404.59,-366.07 414.93,-368.39 414.12,-361.44"/>
</g>
<!-- aws_security_group.bastion_host_sg -->
<g id="node13" class="node">
<title>aws_security_group.bastion_host_sg</title>
<polygon fill="none" stroke="black" points="452.5,-331.04 183.5,-331.04 183.5,-295.04 452.5,-295.04 452.5,-331.04"/>
<text text-anchor="middle" x="318" y="-309.34" font-family="sans-serif" font-size="14.00">aws_security_group.bastion_host_sg</text>
</g>
<!-- aws_instance.bastion_host&#45;&gt;aws_security_group.bastion_host_sg -->
<g id="edge2" class="edge">
<title>aws_instance.bastion_host&#45;&gt;aws_security_group.bastion_host_sg</title>
<path fill="none" stroke="black" d="M536.91,-330.89C513.31,-328.96 487.68,-326.86 462.55,-324.8"/>
<polygon fill="black" stroke="black" points="462.83,-321.31 452.58,-323.98 462.26,-328.29 462.83,-321.31"/>
</g>
<!-- aws_subnet.public1 -->
<g id="node17" class="node">
<title>aws_subnet.public1</title>
<polygon fill="none" stroke="black" points="395,-223.04 241,-223.04 241,-187.04 395,-187.04 395,-223.04"/>
<text text-anchor="middle" x="318" y="-201.34" font-family="sans-serif" font-size="14.00">aws_subnet.public1</text>
</g>
<!-- aws_instance.bastion_host&#45;&gt;aws_subnet.public1 -->
<g id="edge3" class="edge">
<title>aws_instance.bastion_host&#45;&gt;aws_subnet.public1</title>
<path fill="none" stroke="black" d="M536.77,-334.01C519.92,-329.58 503.53,-322.66 490,-312.04 459.32,-287.98 484.5,-256.34 454,-232.04 439.96,-220.86 422.54,-213.91 404.93,-209.68"/>
<polygon fill="black" stroke="black" points="405.66,-206.26 395.15,-207.6 404.21,-213.11 405.66,-206.26"/>
</g>
<!-- aws_instance.private_instance -->
<g id="node3" class="node">
<title>aws_instance.private_instance</title>
<polygon fill="none" stroke="black" points="1155.5,-403.04 928.5,-403.04 928.5,-367.04 1155.5,-367.04 1155.5,-403.04"/>
<text text-anchor="middle" x="1042" y="-381.34" font-family="sans-serif" font-size="14.00">aws_instance.private_instance</text>
</g>
<!-- aws_instance.private_instance&#45;&gt;aws_key_pair.ssh_keys -->
<g id="edge4" class="edge">
<title>aws_instance.private_instance&#45;&gt;aws_key_pair.ssh_keys</title>
<path fill="none" stroke="black" d="M928.19,-383.64C787.01,-381.88 547.66,-378.89 414.9,-377.24"/>
<polygon fill="black" stroke="black" points="414.79,-373.74 404.75,-377.11 414.7,-380.74 414.79,-373.74"/>
</g>
<!-- aws_security_group.private_instance_sg -->
<g id="node14" class="node">
<title>aws_security_group.private_instance_sg</title>
<polygon fill="none" stroke="black" points="785,-303.04 490,-303.04 490,-267.04 785,-267.04 785,-303.04"/>
<text text-anchor="middle" x="637.5" y="-281.34" font-family="sans-serif" font-size="14.00">aws_security_group.private_instance_sg</text>
</g>
<!-- aws_instance.private_instance&#45;&gt;aws_security_group.private_instance_sg -->
<g id="edge5" class="edge">
<title>aws_instance.private_instance&#45;&gt;aws_security_group.private_instance_sg</title>
<path fill="none" stroke="black" d="M983.71,-367.01C932.1,-351.17 853.96,-328.19 785,-312.04 774.69,-309.63 763.92,-307.29 753.12,-305.08"/>
<polygon fill="black" stroke="black" points="753.69,-301.62 743.19,-303.08 752.3,-308.49 753.69,-301.62"/>
</g>
<!-- aws_subnet.private1 -->
<g id="node15" class="node">
<title>aws_subnet.private1</title>
<polygon fill="none" stroke="black" points="718,-449.04 557,-449.04 557,-413.04 718,-413.04 718,-449.04"/>
<text text-anchor="middle" x="637.5" y="-427.34" font-family="sans-serif" font-size="14.00">aws_subnet.private1</text>
</g>
<!-- aws_instance.private_instance&#45;&gt;aws_subnet.private1 -->
<g id="edge6" class="edge">
<title>aws_instance.private_instance&#45;&gt;aws_subnet.private1</title>
<path fill="none" stroke="black" d="M928.35,-397.92C865.14,-405.14 787.37,-414.03 728.3,-420.78"/>
<polygon fill="black" stroke="black" points="727.78,-417.32 718.24,-421.93 728.58,-424.27 727.78,-417.32"/>
</g>
<!-- aws_internet_gateway.main_gateway -->
<g id="node4" class="node">
<title>aws_internet_gateway.main_gateway</title>
<polygon fill="none" stroke="black" points="454,-169.04 182,-169.04 182,-133.04 454,-133.04 454,-169.04"/>
<text text-anchor="middle" x="318" y="-147.34" font-family="sans-serif" font-size="14.00">aws_internet_gateway.main_gateway</text>
</g>
<!-- aws_vpc.main_vpc -->
<g id="node19" class="node">
<title>aws_vpc.main_vpc</title>
<polygon fill="none" stroke="black" points="146,-196.04 0,-196.04 0,-160.04 146,-160.04 146,-196.04"/>
<text text-anchor="middle" x="73" y="-174.34" font-family="sans-serif" font-size="14.00">aws_vpc.main_vpc</text>
</g>
<!-- aws_internet_gateway.main_gateway&#45;&gt;aws_vpc.main_vpc -->
<g id="edge7" class="edge">
<title>aws_internet_gateway.main_gateway&#45;&gt;aws_vpc.main_vpc</title>
<path fill="none" stroke="black" d="M182,-166.04C173.22,-167.02 164.54,-167.98 156.14,-168.92"/>
<polygon fill="black" stroke="black" points="155.6,-165.46 146.05,-170.04 156.37,-172.41 155.6,-165.46"/>
</g>
<!-- aws_nat_gateway.main_nat_gateway -->
<g id="node6" class="node">
<title>aws_nat_gateway.main_nat_gateway</title>
<polygon fill="none" stroke="black" points="772,-249.04 503,-249.04 503,-213.04 772,-213.04 772,-249.04"/>
<text text-anchor="middle" x="637.5" y="-227.34" font-family="sans-serif" font-size="14.00">aws_nat_gateway.main_nat_gateway</text>
</g>
<!-- aws_nat_gateway.main_nat_gateway&#45;&gt;aws_eip.nat_eip -->
<g id="edge8" class="edge">
<title>aws_nat_gateway.main_nat_gateway&#45;&gt;aws_eip.nat_eip</title>
<path fill="none" stroke="black" d="M502.77,-242.84C464.53,-246.21 424.3,-249.76 391.26,-252.67"/>
<polygon fill="black" stroke="black" points="390.9,-249.19 381.25,-253.55 391.52,-256.16 390.9,-249.19"/>
</g>
<!-- aws_nat_gateway.main_nat_gateway&#45;&gt;aws_subnet.public1 -->
<g id="edge9" class="edge">
<title>aws_nat_gateway.main_nat_gateway&#45;&gt;aws_subnet.public1</title>
<path fill="none" stroke="black" d="M502.77,-220.09C469.73,-217.39 435.21,-214.56 405.12,-212.1"/>
<polygon fill="black" stroke="black" points="405.35,-208.6 395.09,-211.28 404.78,-215.58 405.35,-208.6"/>
</g>
<!-- aws_route_table.privateRouteTable -->
<g id="node7" class="node">
<title>aws_route_table.privateRouteTable</title>
<polygon fill="none" stroke="black" points="1170,-249.04 914,-249.04 914,-213.04 1170,-213.04 1170,-249.04"/>
<text text-anchor="middle" x="1042" y="-227.34" font-family="sans-serif" font-size="14.00">aws_route_table.privateRouteTable</text>
</g>
<!-- aws_route_table.privateRouteTable&#45;&gt;aws_nat_gateway.main_nat_gateway -->
<g id="edge10" class="edge">
<title>aws_route_table.privateRouteTable&#45;&gt;aws_nat_gateway.main_nat_gateway</title>
<path fill="none" stroke="black" d="M913.92,-231.04C872.12,-231.04 825.36,-231.04 782.39,-231.04"/>
<polygon fill="black" stroke="black" points="782.14,-227.54 772.14,-231.04 782.14,-234.54 782.14,-227.54"/>
</g>
<!-- aws_route_table.publicRouteTable -->
<g id="node8" class="node">
<title>aws_route_table.publicRouteTable</title>
<polygon fill="none" stroke="black" points="762,-157.04 513,-157.04 513,-121.04 762,-121.04 762,-157.04"/>
<text text-anchor="middle" x="637.5" y="-135.34" font-family="sans-serif" font-size="14.00">aws_route_table.publicRouteTable</text>
</g>
<!-- aws_route_table.publicRouteTable&#45;&gt;aws_internet_gateway.main_gateway -->
<g id="edge11" class="edge">
<title>aws_route_table.publicRouteTable&#45;&gt;aws_internet_gateway.main_gateway</title>
<path fill="none" stroke="black" d="M512.84,-143.72C496.9,-144.32 480.47,-144.94 464.23,-145.55"/>
<polygon fill="black" stroke="black" points="464.01,-142.06 454.15,-145.94 464.28,-149.06 464.01,-142.06"/>
</g>
<!-- aws_route_table_association.private_route_table_association_1 -->
<g id="node9" class="node">
<title>aws_route_table_association.private_route_table_association_1</title>
<polygon fill="none" stroke="black" points="1748,-303.04 1299,-303.04 1299,-267.04 1748,-267.04 1748,-303.04"/>
<text text-anchor="middle" x="1523.5" y="-281.34" font-family="sans-serif" font-size="14.00">aws_route_table_association.private_route_table_association_1</text>
</g>
<!-- aws_route_table_association.private_route_table_association_1&#45;&gt;aws_route_table.privateRouteTable -->
<g id="edge12" class="edge">
<title>aws_route_table_association.private_route_table_association_1&#45;&gt;aws_route_table.privateRouteTable</title>
<path fill="none" stroke="black" d="M1362.5,-267.03C1303.54,-260.38 1237.31,-252.93 1180.51,-246.53"/>
<polygon fill="black" stroke="black" points="1180.71,-243.03 1170.38,-245.39 1179.93,-249.99 1180.71,-243.03"/>
</g>
<!-- aws_route_table_association.private_route_table_association_1&#45;&gt;aws_subnet.private1 -->
<g id="edge13" class="edge">
<title>aws_route_table_association.private_route_table_association_1&#45;&gt;aws_subnet.private1</title>
<path fill="none" stroke="black" d="M1495.58,-303.07C1450.03,-332.43 1353.8,-389.56 1263,-412.04 1077.38,-458.01 851.25,-449.68 728.44,-440.03"/>
<polygon fill="black" stroke="black" points="728.58,-436.53 718.33,-439.22 728.01,-443.51 728.58,-436.53"/>
</g>
<!-- aws_route_table_association.private_route_table_association_2 -->
<g id="node10" class="node">
<title>aws_route_table_association.private_route_table_association_2</title>
<polygon fill="none" stroke="black" points="1748,-195.04 1299,-195.04 1299,-159.04 1748,-159.04 1748,-195.04"/>
<text text-anchor="middle" x="1523.5" y="-173.34" font-family="sans-serif" font-size="14.00">aws_route_table_association.private_route_table_association_2</text>
</g>
<!-- aws_route_table_association.private_route_table_association_2&#45;&gt;aws_route_table.privateRouteTable -->
<g id="edge14" class="edge">
<title>aws_route_table_association.private_route_table_association_2&#45;&gt;aws_route_table.privateRouteTable</title>
<path fill="none" stroke="black" d="M1362.5,-195.06C1303.54,-201.7 1237.31,-209.16 1180.51,-215.56"/>
<polygon fill="black" stroke="black" points="1179.93,-212.1 1170.38,-216.7 1180.71,-219.06 1179.93,-212.1"/>
</g>
<!-- aws_subnet.private2 -->
<g id="node16" class="node">
<title>aws_subnet.private2</title>
<polygon fill="none" stroke="black" points="1122.5,-75.04 961.5,-75.04 961.5,-39.04 1122.5,-39.04 1122.5,-75.04"/>
<text text-anchor="middle" x="1042" y="-53.34" font-family="sans-serif" font-size="14.00">aws_subnet.private2</text>
</g>
<!-- aws_route_table_association.private_route_table_association_2&#45;&gt;aws_subnet.private2 -->
<g id="edge15" class="edge">
<title>aws_route_table_association.private_route_table_association_2&#45;&gt;aws_subnet.private2</title>
<path fill="none" stroke="black" d="M1475.83,-158.95C1424.4,-139.64 1338.9,-109.35 1263,-91.04 1220.57,-80.81 1172.77,-72.99 1132.58,-67.44"/>
<polygon fill="black" stroke="black" points="1132.92,-63.96 1122.54,-66.08 1131.98,-70.89 1132.92,-63.96"/>
</g>
<!-- aws_route_table_association.public_route_table_association_1 -->
<g id="node11" class="node">
<title>aws_route_table_association.public_route_table_association_1</title>
<polygon fill="none" stroke="black" points="1263,-193.04 821,-193.04 821,-157.04 1263,-157.04 1263,-193.04"/>
<text text-anchor="middle" x="1042" y="-171.34" font-family="sans-serif" font-size="14.00">aws_route_table_association.public_route_table_association_1</text>
</g>
<!-- aws_route_table_association.public_route_table_association_1&#45;&gt;aws_route_table.publicRouteTable -->
<g id="edge16" class="edge">
<title>aws_route_table_association.public_route_table_association_1&#45;&gt;aws_route_table.publicRouteTable</title>
<path fill="none" stroke="black" d="M839.46,-157.02C816.66,-154.98 793.87,-152.94 772.25,-151.01"/>
<polygon fill="black" stroke="black" points="772.34,-147.5 762.07,-150.1 771.72,-154.47 772.34,-147.5"/>
</g>
<!-- aws_route_table_association.public_route_table_association_1&#45;&gt;aws_subnet.public1 -->
<g id="edge17" class="edge">
<title>aws_route_table_association.public_route_table_association_1&#45;&gt;aws_subnet.public1</title>
<path fill="none" stroke="black" d="M820.94,-184.19C680.99,-190 507.51,-197.21 405.47,-201.45"/>
<polygon fill="black" stroke="black" points="405.06,-197.96 395.21,-201.88 405.35,-204.96 405.06,-197.96"/>
</g>
<!-- aws_route_table_association.public_route_table_association_2 -->
<g id="node12" class="node">
<title>aws_route_table_association.public_route_table_association_2</title>
<polygon fill="none" stroke="black" points="1263,-136.04 821,-136.04 821,-100.04 1263,-100.04 1263,-136.04"/>
<text text-anchor="middle" x="1042" y="-114.34" font-family="sans-serif" font-size="14.00">aws_route_table_association.public_route_table_association_2</text>
</g>
<!-- aws_route_table_association.public_route_table_association_2&#45;&gt;aws_route_table.publicRouteTable -->
<g id="edge18" class="edge">
<title>aws_route_table_association.public_route_table_association_2&#45;&gt;aws_route_table.publicRouteTable</title>
<path fill="none" stroke="black" d="M820.91,-129.53C804.42,-130.39 788.11,-131.24 772.41,-132.06"/>
<polygon fill="black" stroke="black" points="771.99,-128.57 762.19,-132.59 772.36,-135.56 771.99,-128.57"/>
</g>
<!-- aws_subnet.public2 -->
<g id="node18" class="node">
<title>aws_subnet.public2</title>
<polygon fill="none" stroke="black" points="395,-115.04 241,-115.04 241,-79.04 395,-79.04 395,-115.04"/>
<text text-anchor="middle" x="318" y="-93.34" font-family="sans-serif" font-size="14.00">aws_subnet.public2</text>
</g>
<!-- aws_route_table_association.public_route_table_association_2&#45;&gt;aws_subnet.public2 -->
<g id="edge19" class="edge">
<title>aws_route_table_association.public_route_table_association_2&#45;&gt;aws_subnet.public2</title>
<path fill="none" stroke="black" d="M820.94,-111.64C680.99,-107.57 507.51,-102.53 405.47,-99.56"/>
<polygon fill="black" stroke="black" points="405.31,-96.05 395.21,-99.26 405.11,-103.05 405.31,-96.05"/>
</g>
<!-- aws_security_group.bastion_host_sg&#45;&gt;aws_vpc.main_vpc -->
<g id="edge20" class="edge">
<title>aws_security_group.bastion_host_sg&#45;&gt;aws_vpc.main_vpc</title>
<path fill="none" stroke="black" d="M201.91,-294.98C195.02,-292.39 188.32,-289.43 182,-286.04 144.82,-266.15 112.16,-229.3 92.75,-204.23"/>
<polygon fill="black" stroke="black" points="95.51,-202.08 86.68,-196.22 89.93,-206.31 95.51,-202.08"/>
</g>
<!-- aws_security_group.private_instance_sg&#45;&gt;aws_security_group.bastion_host_sg -->
<g id="edge21" class="edge">
<title>aws_security_group.private_instance_sg&#45;&gt;aws_security_group.bastion_host_sg</title>
<path fill="none" stroke="black" d="M489.83,-297.98C480.86,-298.77 471.84,-299.57 462.88,-300.36"/>
<polygon fill="black" stroke="black" points="462.45,-296.88 452.79,-301.24 463.06,-303.85 462.45,-296.88"/>
</g>
<!-- aws_subnet.private1&#45;&gt;aws_vpc.main_vpc -->
<g id="edge22" class="edge">
<title>aws_subnet.private1&#45;&gt;aws_vpc.main_vpc</title>
<path fill="none" stroke="black" d="M556.97,-448.72C459.75,-465.62 294.31,-478.64 182,-403.04 113.85,-357.18 87.41,-255.84 78.27,-206.35"/>
<polygon fill="black" stroke="black" points="81.69,-205.59 76.53,-196.34 74.8,-206.79 81.69,-205.59"/>
</g>
<!-- aws_subnet.private2&#45;&gt;aws_vpc.main_vpc -->
<g id="edge23" class="edge">
<title>aws_subnet.private2&#45;&gt;aws_vpc.main_vpc</title>
<path fill="none" stroke="black" d="M961.45,-39.18C804.84,-8.03 448.65,42.78 182,-70.04 142.73,-86.66 110.18,-125.02 91.4,-151.25"/>
<polygon fill="black" stroke="black" points="88.41,-149.42 85.57,-159.63 94.15,-153.42 88.41,-149.42"/>
</g>
<!-- aws_subnet.public1&#45;&gt;aws_vpc.main_vpc -->
<g id="edge24" class="edge">
<title>aws_subnet.public1&#45;&gt;aws_vpc.main_vpc</title>
<path fill="none" stroke="black" d="M240.78,-196.57C214,-193.6 183.79,-190.24 156.51,-187.21"/>
<polygon fill="black" stroke="black" points="156.54,-183.69 146.22,-186.07 155.77,-190.65 156.54,-183.69"/>
</g>
<!-- aws_subnet.public2&#45;&gt;aws_vpc.main_vpc -->
<g id="edge25" class="edge">
<title>aws_subnet.public2&#45;&gt;aws_vpc.main_vpc</title>
<path fill="none" stroke="black" d="M240.73,-108.62C221.3,-112.57 200.65,-117.64 182,-124.04 158.44,-132.13 133.49,-144.34 113.51,-155.1"/>
<polygon fill="black" stroke="black" points="111.79,-152.05 104.7,-159.93 115.16,-158.19 111.79,-152.05"/>
</g>
</g>
</svg>
